<?xml version="1.0" standalone="no"?>
<!DOCTYPE svg PUBLIC "-//W3C//DTD SVG 20010904//EN"
 "http://www.w3.org/TR/2001/REC-SVG-20010904/DTD/svg10.dtd">
<svg version="1.0" xmlns="http://www.w3.org/2000/svg"
 width="99.000000pt" height="99.000000pt" viewBox="0 0 99.000000 99.000000"
 preserveAspectRatio="xMidYMid meet">
<metadata>
Created by potrace 1.14, written by Peter Selinger 2001-2017
</metadata>
<g transform="translate(0.000000,99.000000) scale(0.100000,-0.100000)"
fill="#000000" stroke="none">
<path d="M279 945 c-13 -25 -28 -45 -32 -45 -5 0 -5 -5 -2 -10 4 -6 3 -35 0
-65 l-7 -55 -119 4 -119 3 0 -388 0 -389 63 0 c44 0 58 3 47 10 -8 5 -23 10
-32 10 -21 0 -48 59 -48 103 0 40 44 113 79 131 43 23 134 56 153 56 9 0 35
-15 57 -34 l41 -34 94 5 c57 4 119 1 160 -7 l66 -12 40 36 c47 42 56 43 130
15 88 -33 120 -74 120 -153 0 -25 5 -48 10 -51 7 -4 10 87 10 265 0 327 0 326
-95 369 -76 35 -95 60 -95 126 0 27 -4 56 -9 64 -11 18 -31 5 -31 -20 0 -28
-18 -59 -34 -59 -26 0 -39 -28 -28 -57 6 -16 13 -41 17 -56 4 -19 15 -31 35
-38 75 -27 84 -145 16 -219 -13 -14 -26 -37 -29 -51 -10 -42 -46 -54 -120 -41
-44 8 -78 9 -117 1 -109 -20 -121 -21 -153 -8 -40 16 -48 24 -75 74 -26 49
-42 108 -42 155 0 41 50 110 79 110 10 0 26 9 36 21 17 18 17 24 6 52 -31 77
-30 156 1 195 14 17 55 8 113 -25 64 -36 137 -35 215 2 103 49 87 55 -159 55
l-218 0 -24 -45z"/>
<path d="M377 833 c-10 -9 -9 -53 1 -53 14 0 32 23 32 42 0 18 -20 25 -33 11z"/>
<path d="M385 41 c-6 -5 -35 -16 -65 -24 l-55 -15 93 -1 93 -1 -18 25 c-19 26
-33 31 -48 16z"/>
<path d="M600 15 c-23 -13 -15 -14 85 -13 93 0 102 2 60 9 -110 17 -120 18
-145 4z"/>
<path d="M843 3 c9 -2 25 -2 35 0 9 3 1 5 -18 5 -19 0 -27 -2 -17 -5z"/>
</g>
</svg>
